HIERARCHY
ROOT Hips
{
	OFFSET 0.000000 0.000000 0.000000
	CHANNELS 6 Xposition Yposition Zposition Zrotation Yrotation Xrotation 
	JOINT LeftUpLeg_virtual
	{
		OFFSET 0.000000 0.000000 0.000000
		CHANNELS 3 Zrotation Yrotation Xrotation
		JOINT LeftUpLeg
		{
			OFFSET 10.205400 -3.823500 0.155100
			CHANNELS 3 Zrotation Yrotation Xrotation
			JOINT LeftLeg
			{
				OFFSET 0.708757 -12.982077 0.567790
				CHANNELS 3 Zrotation Yrotation Xrotation
				JOINT LeftFoot
				{
					OFFSET -0.708756 -10.717838 -2.184338
					CHANNELS 3 Zrotation Yrotation Xrotation
					JOINT LeftToeBase
					{
						OFFSET 0.108149 -7.191104 7.560241
						CHANNELS 3 Zrotation Yrotation Xrotation
						End Site
						{
							OFFSET 0.000000 0.000000 0.000000
						}
					}
				}
			}
		}
	}
	JOINT RightUpLeg_virtual
	{
		OFFSET 0.000000 0.000000 0.000000
		CHANNELS 3 Zrotation Yrotation Xrotation
		JOINT RightUpLeg
		{
			OFFSET -10.205400 -3.823500 0.005500
			CHANNELS 3 Zrotation Yrotation Xrotation
			JOINT RightLeg
			{
				OFFSET -0.708756 -12.982134 0.610632
				CHANNELS 3 Zrotation Yrotation Xrotation
				JOINT RightFoot
				{
					OFFSET 0.708754 -10.717769 -1.945823
					CHANNELS 3 Zrotation Yrotation Xrotation
					JOINT RightToeBase
					{
						OFFSET -0.108140 -7.191069 7.372968
						CHANNELS 3 Zrotation Yrotation Xrotation
						End Site
						{
							OFFSET 0.000000 0.000000 0.000000
						}
					}
				}
			}
		}
	}
	JOINT Spine_virtual
	{
		OFFSET 0.000000 0.000000 0.000000
		CHANNELS 3 Zrotation Yrotation Xrotation
		JOINT Spine
		{
			OFFSET 0.000000 6.876099 0.125700
			CHANNELS 3 Zrotation Yrotation Xrotation
			JOINT Spine1
			{
				OFFSET 0.000000 8.022060 0.146608
				CHANNELS 3 Zrotation Yrotation Xrotation
				JOINT Spine2
				{
					OFFSET 0.000000 9.168068 0.167552
					CHANNELS 3 Zrotation Yrotation Xrotation
					JOINT Neck_virtual
					{
						OFFSET 0.000000 0.000000 0.000000
						CHANNELS 3 Zrotation Yrotation Xrotation
						JOINT Neck
						{
							OFFSET 0.000000 10.314075 0.188496
							CHANNELS 3 Zrotation Yrotation Xrotation
							JOINT Head
							{
								OFFSET 0.000000 7.643700 -2.377400
								CHANNELS 3 Zrotation Yrotation Xrotation
								End Site
								{
									OFFSET 0.000000 0.000000 0.000000
								}
							}
						}
					}
					JOINT LeftShoulder_virtual
					{
						OFFSET 0.000000 0.000000 0.000000
						CHANNELS 3 Zrotation Yrotation Xrotation
						JOINT LeftShoulder
						{
							OFFSET 4.392200 8.824978 0.174984
							CHANNELS 3 Zrotation Yrotation Xrotation
							JOINT LeftArm
							{
								OFFSET 8.771219 -2.981674 -0.026999
								CHANNELS 3 Zrotation Yrotation Xrotation
								JOINT LeftForeArm
								{
									OFFSET 8.512804 0.000000 -0.000000
									CHANNELS 3 Zrotation Yrotation Xrotation
									JOINT LeftHand
									{
										OFFSET 18.484802 0.000000 -0.000000
										CHANNELS 3 Zrotation Yrotation Xrotation
										End Site
										{
											OFFSET 0.000000 0.000000 0.000000
										}
									}
								}
							}
						}
					}
					JOINT RightShoulder_virtual
					{
						OFFSET 0.000000 0.000000 0.000000
						CHANNELS 3 Zrotation Yrotation Xrotation
						JOINT RightShoulder
						{
							OFFSET -4.392200 8.824993 0.141379
							CHANNELS 3 Zrotation Yrotation Xrotation
							JOINT RightArm
							{
								OFFSET -8.771282 -2.981682 -0.094208
								CHANNELS 3 Zrotation Yrotation Xrotation
								JOINT RightForeArm
								{
									OFFSET -8.494598 0.000000 0.000000
									CHANNELS 3 Zrotation Yrotation Xrotation
									JOINT RightHand
									{
										OFFSET -18.483803 0.000000 0.000001
										CHANNELS 3 Zrotation Yrotation Xrotation
										End Site
										{
											OFFSET 0.000000 0.000000 0.000000
										}
									}
								}
							}
						}
					}
				}
			}
		}
	}
}
MOTION
Frames: 4
Frame Time: 0.033333
3.777566 34.907818 -31.292372 -179.851735 -68.078060 179.962084 -2.408094 -5.632827 11.793932 -4.806161 -12.292942 -8.299832 15.424645 -2.784023 25.649636 -4.163502 1.096945 -1.185089 0.000000 0.000000 0.000000 2.795339 -2.422395 6.914060 -12.764801 15.549853 -38.754145 -8.760208 10.080946 20.074293 16.894726 7.608009 20.723890 0.000000 0.000000 0.000000 0.226292 -1.313265 -5.506921 3.983094 5.224065 -11.627466 -0.595021 -2.623380 10.586554 0.055683 -0.070925 -0.041752 -0.534300 -0.811388 13.071537 11.802929 -10.585100 29.961800 0.000000 0.000000 0.000000 0.912240 -0.581037 9.315982 11.217552 -6.007289 -3.688591 -72.734425 18.542721 -7.178383 -155.364278 -82.254179 171.246885 0.000000 0.000000 0.000000 -3.409210 0.872881 8.114175 1.410326 7.868140 -6.291075 80.886522 -20.658155 -3.067499 -150.322792 71.592595 -156.633627 0.000000 0.000000 0.000000 
3.006032 34.950691 -32.586147 -179.593540 -70.471515 179.076222 -2.247940 -5.935393 12.224990 -4.107607 -12.048833 -7.707538 15.612542 -3.236266 26.967335 -3.422685 1.914280 0.261322 0.000000 0.000000 0.000000 2.714391 -2.645481 6.960382 -11.789750 15.725718 -37.782448 -8.072518 10.522207 21.928128 17.919819 7.727509 19.918928 0.000000 0.000000 0.000000 0.271378 -1.388732 -5.349744 4.056365 5.053282 -11.546347 -0.648014 -2.613111 10.548612 0.049950 -0.093833 -0.063808 -0.601063 -0.791028 13.093879 11.743914 -11.042665 29.729201 0.000000 0.000000 0.000000 0.818255 -0.537195 9.439823 11.279346 -6.701613 -3.515658 -71.928237 18.350763 -5.226999 -153.279308 -82.203362 169.411887 0.000000 0.000000 0.000000 -3.492475 0.899683 8.092481 1.620306 7.323597 -6.149894 81.307241 -21.125118 -4.399885 -150.192800 71.482253 -156.603452 0.000000 0.000000 0.000000 
2.296079 35.063778 -33.712795 -179.249190 -73.070252 178.301036 -2.250187 -6.423075 12.627569 -3.285288 -10.814209 -7.738686 16.126925 -2.551263 27.941604 -2.809107 2.800342 2.258953 0.000000 0.000000 0.000000 2.573519 -2.631369 7.045727 -10.459765 15.547121 -36.385442 -6.944043 10.822699 23.447196 17.799587 7.829827 18.714408 0.000000 0.000000 0.000000 0.310338 -1.327824 -5.295773 4.058004 4.925578 -11.476775 -0.701622 -2.604689 10.868691 0.050242 -0.123464 -0.171457 -0.701710 -0.765763 13.030672 11.872006 -11.076085 29.689176 0.000000 0.000000 0.000000 0.744836 -0.602653 9.386888 11.582999 -7.051836 -3.307307 -71.073125 18.153217 -5.000686 -151.854216 -82.315637 168.212178 0.000000 0.000000 0.000000 -3.674363 0.833170 8.001805 1.615785 6.754313 -6.201416 81.452738 -21.789837 -5.886969 -150.128869 71.466728 -156.633286 0.000000 0.000000 0.000000 
1.656073 35.224689 -34.600250 -179.228658 -75.361022 178.392015 -2.222503 -5.517475 11.670421 -2.682745 -8.989216 -8.705620 17.025380 -0.256476 29.318437 -2.299038 3.574517 6.161733 0.000000 0.000000 0.000000 1.992112 -2.706894 7.372386 -8.154623 15.194060 -34.268838 -6.600737 10.961177 24.178876 17.039843 7.186722 17.775605 0.000000 0.000000 0.000000 0.291820 -1.149091 -5.213109 3.973405 4.882606 -11.560623 -0.769488 -2.549158 10.873404 0.027894 -0.050234 -0.182239 -0.718946 -0.730211 13.082727 12.000228 -11.270830 29.553095 0.000000 0.000000 0.000000 0.763607 -0.465648 9.467252 12.120312 -7.001659 -3.140124 -70.297796 18.001570 -6.652618 -149.581730 -81.985821 166.155389 0.000000 0.000000 0.000000 -3.660222 0.922067 8.138970 1.500110 6.322210 -6.205144 81.082146 -22.314382 -7.123521 -150.248370 71.242288 -156.776501 0.000000 0.000000 0.000000 
